<svg xmlns="http://www.w3.org/2000/svg" xmlns:xlink="http://www.w3.org/1999/xlink" id="Layer_1" style="enable-background:new 0 0 64 64;" version="1.1" viewBox="0 0 64 64" xml:space="preserve"><style type="text/css">
	.st0{fill:#314A52;}
	.st1{fill-rule:evenodd;clip-rule:evenodd;}
</style><g id="Apple"><polygon class="st0" points="12,19.5 54,19.5 48,49 10,49 5,36  "/><path class="st1" d="M55,19c-3.8-2.6-7.8-3-9.4-3c-3.1,0-5.6,1-7.8,1.8C36,18.4,34.5,19,33,19c-1.5,0-2.9-0.6-4.5-1.3   c-2-0.8-4.2-1.7-6.9-1.7C18.4,16,4,17.5,4,35.4C4,49.7,15.9,64,21.4,64c2.2,0,4.1-0.6,6-1.3c1.9-0.6,3.8-1.3,6-1.3   c2.2,0,4.1,0.6,6,1.3s3.8,1.3,6,1.3c3.4,0,9.2-5.6,13.1-13.4c0.3-0.7,0.7-1.4,1-2.1c0.2-0.5,0.4-1,0.6-1.6c-5.3-2.2-8-7.1-8-13   c0-3.7,0.9-7,3-9.6c0.8-1,1.8-1.9,3-2.6C57.1,20.7,56,19.7,55,19z M48,34c0,5.5-5.4,10.2-13.3,12.5C32,47.4,28.2,48,24,48   c-7.1,0-13.1-1.6-14.4-3.7c-1-2.9-1.6-5.9-1.6-8.9c0-7.7,3-11.2,5.8-13.1c3.1-2,6.6-2.3,7.9-2.3c1.6,0,3,0.5,4.8,1.2   c0.2,0.1,0.3,0.1,0.5,0.2C28.4,22,30.7,23,33,23c1.4,0,2.7-0.3,3.8-0.7c0.8-0.2,1.6-0.6,2.4-0.9c0.2-0.1,0.5-0.2,0.7-0.2   c1.9-0.7,3.7-1.3,5.7-1.3c1.1,0,3.8,0.3,6.4,1.8C49.1,25.3,48,29.7,48,34z M32,14c0-7.7,6.2-13.9,13.9-14C46,0.7,46,1.3,46,2   c0,7.7-6.2,13.9-13.9,14C32,15.3,32,14.7,32,14z"/></g></svg>